<svg xmlns="http://www.w3.org/2000/svg" viewBox="0 0 1600 1100">
  <defs>
    <linearGradient id="bg" x1="0" y1="0" x2="1" y2="1">
      <stop offset="0" stop-color="#2a0d12"/>
      <stop offset="0.55" stop-color="#651c26"/>
      <stop offset="1" stop-color="#9d5b28"/>
    </linearGradient>
    <radialGradient id="glow"><stop offset="0" stop-color="#f5d98c" stop-opacity=".8"/><stop offset="1" stop-color="#f5d98c" stop-opacity="0"/></radialGradient>
    <filter id="shadow"><feDropShadow dx="0" dy="28" stdDeviation="20" flood-opacity=".35"/></filter>
  </defs>
  <rect width="1600" height="1100" fill="url(#bg)"/>
  <circle cx="1220" cy="290" r="320" fill="url(#glow)"/>
  <path d="M0 800 C260 720 380 920 650 820S1110 710 1600 850V1100H0Z" fill="#1c1110" opacity=".55"/>
  <g opacity=".2" fill="none" stroke="#f3d27c" stroke-width="8">
    <path d="M120 100q100 70 0 140q-100-70 0-140Zm0 0v140"/>
    <path d="M1420 780q100 70 0 140q-100-70 0-140Zm0 0v140"/>
  </g>
  <g transform="translate(760 190)" filter="url(#shadow)">
    <ellipse cx="315" cy="665" rx="285" ry="65" fill="#120907" opacity=".45"/>
    <path d="M105 190 C130 95 500 95 525 190 L485 610 C470 710 160 710 145 610Z" fill="#c26f37"/>
    <path d="M135 210 C190 260 450 260 500 210" fill="none" stroke="#8f4a28" stroke-width="26"/>
    <ellipse cx="315" cy="185" rx="210" ry="80" fill="#6f331f"/>
    <ellipse cx="315" cy="170" rx="182" ry="55" fill="#c48854"/>
    <ellipse cx="315" cy="165" rx="165" ry="43" fill="#73422c"/>
    <path d="M145 355q170 110 340 0" fill="none" stroke="#f1d57b" stroke-width="20" stroke-linecap="round"/>
    <path d="M190 430q125 75 250 0" fill="none" stroke="#236b58" stroke-width="18" stroke-linecap="round"/>
    <g fill="#f7dd8d">
      <circle cx="230" cy="520" r="22"/><circle cx="400" cy="520" r="22"/><circle cx="315" cy="565" r="26"/>
    </g>
    <path d="M250 105 C205 25 255 -5 230 -85 M315 100 C260 0 340 -20 305 -115 M380 105 C335 30 400 0 380 -80" stroke="#fff5dc" stroke-width="16" stroke-linecap="round" fill="none" opacity=".75"/>
  </g>
  <g transform="translate(85 160)">
    <rect width="510" height="560" rx="48" fill="#f4e7c6" opacity=".08" stroke="#f5d98c" stroke-opacity=".25"/>
    <text x="55" y="115" fill="#f4e7c6" font-family="Georgia,serif" font-size="54" letter-spacing="8">ORIGINAL</text>
    <text x="55" y="210" fill="#f7d77f" font-family="Georgia,serif" font-size="88" font-weight="700">CHAI ROOM</text>
    <text x="55" y="288" fill="#f4e7c6" font-family="Arial,sans-serif" font-size="30">Creek Walk · DHA 8 · Karachi</text>
    <line x1="55" y1="345" x2="430" y2="345" stroke="#2b7b65" stroke-width="7"/>
    <text x="55" y="420" fill="#f4e7c6" font-family="Arial,sans-serif" font-size="27">Desi chai. Real food.</text>
    <text x="55" y="462" fill="#f4e7c6" font-family="Arial,sans-serif" font-size="27">Good company.</text>
  </g>
</svg>
