<svg xmlns="http://www.w3.org/2000/svg" viewBox="0 0 1600 1100">
  <defs>
    <linearGradient id="bg" x1="0" y1="0" x2="1" y2="1">
      <stop offset="0" stop-color="#22090e"/>
      <stop offset="0.52" stop-color="#681723"/>
      <stop offset="1" stop-color="#a6592b"/>
    </linearGradient>
    <radialGradient id="glow" cx="50%" cy="50%" r="50%">
      <stop offset="0" stop-color="#f1c97e" stop-opacity="0.82"/>
      <stop offset="1" stop-color="#f1c97e" stop-opacity="0"/>
    </radialGradient>
    <linearGradient id="matkaBody" x1="0" y1="0" x2="1" y2="1">
      <stop offset="0" stop-color="#c66b34"/>
      <stop offset="0.55" stop-color="#b65d2b"/>
      <stop offset="1" stop-color="#8e401e"/>
    </linearGradient>
    <linearGradient id="rim" x1="0" y1="0" x2="0" y2="1">
      <stop offset="0" stop-color="#7b331f"/>
      <stop offset="1" stop-color="#5e2516"/>
    </linearGradient>
    <linearGradient id="highlight" x1="0" y1="0" x2="1" y2="0">
      <stop offset="0" stop-color="#df9a61" stop-opacity="0.72"/>
      <stop offset="1" stop-color="#df9a61" stop-opacity="0"/>
    </linearGradient>
    <filter id="shadow" x="-20%" y="-20%" width="150%" height="160%">
      <feDropShadow dx="0" dy="28" stdDeviation="28" flood-color="#120806" flood-opacity="0.45"/>
    </filter>
  </defs>

  <rect width="1600" height="1100" fill="url(#bg)"/>
  <circle cx="1220" cy="320" r="340" fill="url(#glow)"/>
  <path d="M0 870 C240 790 430 920 690 850S1150 770 1600 885V1100H0Z" fill="#16090c" opacity="0.5"/>

  <g opacity="0.18" fill="none" stroke="#f4d37d" stroke-width="8">
    <path d="M118 100q100 70 0 140q-100-70 0-140Zm0 0v140"/>
    <path d="M1440 805q100 70 0 140q-100-70 0-140Zm0 0v140"/>
  </g>

  <g transform="translate(790 138)" filter="url(#shadow)">
    <ellipse cx="300" cy="760" rx="275" ry="62" fill="#150a08" opacity="0.45"/>
    <g stroke="#fff2d8" stroke-linecap="round" fill="none" opacity="0.76">
      <path d="M205 118 C170 48 215 10 190 -54" stroke-width="16"/>
      <path d="M295 110 C255 28 312 -2 286 -92" stroke-width="18"/>
      <path d="M390 120 C360 56 410 18 387 -48" stroke-width="16"/>
    </g>
    <ellipse cx="300" cy="182" rx="185" ry="68" fill="#8d4426"/>
    <ellipse cx="300" cy="174" rx="166" ry="53" fill="url(#rim)"/>
    <ellipse cx="300" cy="170" rx="142" ry="40" fill="#593223"/>
    <ellipse cx="300" cy="162" rx="110" ry="22" fill="#7c533a" opacity="0.55"/>
    <path d="M130 205 C122 248 112 300 104 345 C82 470 80 560 94 646 C108 735 170 812 300 824 C430 812 492 735 506 646 C520 560 518 470 496 345 C488 300 478 248 470 205 C430 222 372 234 300 236 C228 234 170 222 130 205Z" fill="url(#matkaBody)"/>
    <path d="M165 245 C145 370 140 590 173 690 C196 761 240 793 300 804" fill="none" stroke="url(#highlight)" stroke-width="18" stroke-linecap="round" opacity="0.6"/>
    <path d="M155 428 Q300 510 445 428" fill="none" stroke="#e3bf73" stroke-width="22" stroke-linecap="round"/>
    <path d="M188 520 Q300 586 412 520" fill="none" stroke="#0f6b63" stroke-width="20" stroke-linecap="round"/>
    <path d="M220 607 Q300 650 380 607" fill="none" stroke="#e3bf73" stroke-width="16" stroke-linecap="round" opacity="0.9"/>
    <g fill="#e5c27b">
      <circle cx="210" cy="670" r="24"/>
      <circle cx="390" cy="670" r="24"/>
      <circle cx="300" cy="726" r="29"/>
    </g>
  </g>
</svg>
