<svg xmlns="http://www.w3.org/2000/svg" viewBox="0 0 900 620"><rect width="900" height="620" fill="#371017"/><rect y="420" width="900" height="200" fill="#1d1110"/><g fill="#f0d377" opacity=".9"><circle cx="170" cy="110" r="24"/><circle cx="450" cy="85" r="24"/><circle cx="730" cy="110" r="24"/></g><g stroke="#f0d377" stroke-width="5"><path d="M170 0v85m280-85v60m280-60v85"/></g><path d="M185 420V220q0-130 115-130t115 130v200" fill="#f0e2c2"/><path d="M485 420V220q0-130 115-130t115 130v200" fill="#f0e2c2"/><rect x="230" y="285" width="140" height="135" rx="12" fill="#6d222d"/><rect x="530" y="285" width="140" height="135" rx="12" fill="#6d222d"/><g fill="#9f5b34"><ellipse cx="300" cy="460" rx="80" ry="20"/><rect x="245" y="450" width="110" height="18"/><ellipse cx="600" cy="460" rx="80" ry="20"/><rect x="545" y="450" width="110" height="18"/></g><path d="M0 520q220-70 450 0t450 0v100H0Z" fill="#6f2630" opacity=".35"/></svg>
